<svg width="150" height="202" xmlns="http://www.w3.org/2000/svg" xmlns:xlink="http://www.w3.org/1999/xlink">
 <defs>
  <linearGradient id="imagebot_46">
   <stop stop-color="#000000" offset="0" id="imagebot_54"/>
   <stop stop-color="#000000" stop-opacity="0" offset="1" id="imagebot_53"/>
  </linearGradient>
  <linearGradient x1="0.24551" y1="0.94795" x2="0.24551" y2="0.12484" id="imagebot_20">
   <stop stop-color="#000000" offset="0" id="imagebot_50"/>
   <stop stop-color="#4d4d4d" offset="1" id="imagebot_49"/>
  </linearGradient>
  <linearGradient x1="0.63964" y1="0.66219" x2="0.34777" y2="0.47981" id="imagebot_18">
   <stop stop-color="#000000" offset="0" id="imagebot_48"/>
   <stop stop-color="#4d4d4d" offset="1" id="imagebot_47"/>
  </linearGradient>
  <radialGradient r="60.606" gradientTransform="matrix(1 0 0 .18008 0 273.58)" cx="1293.2" cy="333.66" gradientUnits="userSpaceOnUse" xlink:href="#imagebot_46" id="imagebot_43"/>
  <linearGradient x1="0.26999" y1="0.26857" x2="0.2901" y2="0" id="imagebot_55">
   <stop stop-opacity="0.99609" stop-color="#ffff00" offset="0" id="imagebot_52"/>
   <stop stop-opacity="0.99609" stop-color="#bfbf00" offset="1" id="imagebot_51"/>
  </linearGradient>
  <radialGradient r="60.606" gradientTransform="matrix(1.2048 -.019540 .0018985 .18006 -255.45 298.27)" cx="1253.9" cy="319.48" gradientUnits="userSpaceOnUse" xlink:href="#imagebot_46" id="imagebot_25"/>
  <radialGradient r="98.086" gradientTransform="matrix(2.4749 -.37023 .032120 .21472 -1231.7 1195.3)" cx="1118.9" cy="400.65" gradientUnits="userSpaceOnUse" xlink:href="#imagebot_46" id="imagebot_28"/>
  <radialGradient r="98.086" gradientTransform="matrix(2.4749 -0.37023 0.03212 0.21472 -1231.72 1195.3)" cx="1118.9" cy="400.65" gradientUnits="userSpaceOnUse" xlink:href="#imagebot_46" id="imagebot_31"/>
  <linearGradient x1="0.76455" y1="0.1765" x2="0.77994" y2="0.58155" id="imagebot_59">
   <stop stop-opacity="0.99609" stop-color="#ffff00" offset="0" id="imagebot_45"/>
   <stop stop-opacity="0.99609" stop-color="#bfbf00" offset="1" id="imagebot_44"/>
  </linearGradient>
 </defs>
 <g label="Ebene 1" id="imagebot_2">
  <path label="Ebene 1" fill="url(#imagebot_43)" transform="matrix(0.672646 0 0 0.502119 -770.157 -0.324398)" d="M1353.8,333.66C1353.8,339.6875 1326.666,344.574 1293.194,344.574S1232.588,339.6878 1232.588,333.66C1232.588,327.6325 1259.722,322.746 1293.194,322.746S1353.8,327.6322 1353.8,333.66z" id="imagebot_42"/>
  <path label="Ebene 1" fill="url(#imagebot_59)" d="M 126.4893593840585 141.5922444342121 L 97.59645544690784 141.58986288921227 C 97.11981303065477 141.592720743212 96.65112497470102 141.62892022720843 96.19734539044578 141.70894013920048 L 72.739127142759 145.84687457629246 C 73.19290672701425 145.76684037503037 73.661594782968 145.71592294293538 74.13823719922107 145.7129126700557 L 103.10401641336466 145.53429679507326 C 107.66215065021515 145.5055277314762 111.29224443155715 149.2967568475023 111.24604245856176 153.85493871525279 L 134.63186173825557 149.9128625389415 C 134.67806371125107 145.354775932991 131.048160453509 141.56364207876487 126.48983569305858 141.59222061876204 L 126.4893593840585 141.5922444342121 z" id="imagebot_40"/>
  <path label="Ebene 1" fill="#bfbf00" d="M 134.6342432832554 149.3941858534427 L 111.24842400356158 153.74369674831377 L 111.14425522527176 163.12984190138815 C 111.10376896027572 167.13741056519297 108.23629351875854 170.4845291696629 104.4459217589324 171.15279069659704 L 127.84650661762475 164.8912325832145 C 131.63664022295097 164.22292342538043 134.50387750996833 160.87599534451044 134.54484008396423 156.86828378800567 L 134.6342432832554 149.3941858534427 z" id="imagebot_39"/>
  <path transform="matrix(0.476309 0 0 0.476309 -786.919 -261.699)" label="Ebene 1" fill="#eded00" d="M1807.7,855.37L1868.507,854.98607C1878.0768,854.92567 1885.702,862.86607 1885.605,872.43607L1885.4065,891.91607C1885.3095,901.48567 1877.5236,909.26807 1867.9565,909.01407L1807.1695,907.39797C1797.9569,907.15305 1790.6105,899.80967 1790.7045,890.59397L1790.8956,871.83497C1790.9896,862.61957 1798.4836,855.42797 1807.6996,855.36997L1807.7,855.37z" id="imagebot_38"/>
  <path transform="matrix(0.476309 0 0 0.476309 -786.919 -261.699)" label="Ebene 1" stroke="#bfbf00" stroke-width="0.988" fill="none" d="M1811.3,862.41L1865.166,862.09763C1873.6434,862.04843 1878.855,866.29363 1878.761,874.77263L1878.5695,892.03163C1878.4755,900.51033 1873.1717,904.65663 1864.6975,904.44963L1810.8495,903.13483C1802.6884,902.93556 1797.7035,899.19753 1797.7945,890.99583L1797.9799,874.30083C1798.0709,866.09963 1803.1378,862.45683 1811.3019,862.40883L1811.3,862.41z" id="imagebot_37"/>
  <path transform="matrix(0.476309 0 0 0.476309 -786.919 -261.699)" label="Ebene 1" stroke="#7f7f00" stroke-width="1.788" fill="none" d="M1810.6,861.36L1864.466,861.04763C1872.9434,860.99843 1878.155,865.24363 1878.061,873.72263L1877.8695,890.98163C1877.7755,899.46033 1872.4717,903.60663 1863.9975,903.39963L1810.1495,902.08483C1801.9884,901.88557 1797.0035,898.14753 1797.0945,889.94583L1797.2799,873.25083C1797.3709,865.04963 1802.4378,861.40683 1810.6019,861.35883L1810.6,861.36z" id="imagebot_36"/>
  <g transform="matrix(0.5756 0 0 0.5756 -921.642 -295.286)" label="Ebene 1" opacity="0.53597" id="imagebot_26">
   <path label="Ebene 1" opacity="0.11" fill="url(#imagebot_28)" d="M1784.3,818.55C1751.334,821.6571 1719.144,830.467 1686.949,837.981C1667.133,842.9329 1647.341,847.992 1627.643,853.393C1626.1321,860.1346 1637.897,854.33429 1642.201,855.5819C1697.978,851.6064 1753.921,848.3359 1809.581,843.6739C1814.2511,843.3866 1821.257,839.5397 1818.1435,833.9551C1811.6484,822.9271 1796.6515,818.0361 1784.2995,818.5491L1784.3,818.55z" id="imagebot_33"/>
   <path label="Ebene 1" opacity="0.11" fill="url(#imagebot_28)" d="M1784.2,817.7C1752.538,820.6553 1721.679,829.026 1690.774,836.18C1669.402,841.4829 1648.066,846.981 1626.856,852.7C1623.6803,860.258 1632.5393,856.4178 1636.962,856.779C1694.526,852.6622 1752.172,849.3377 1809.672,844.481C1814.6518,844.02695 1821.827,840.2408 1819.1095,834.231C1813.7774,823.877 1801.5065,819.312 1790.5705,817.801C1788.4602,817.51577 1786.3235,817.56403 1784.2034,817.69986L1784.2,817.7z" id="imagebot_32"/>
   <path label="Ebene 1" opacity="0.11" fill="url(#imagebot_31)" d="M 1626.1799865722655 852.0599804687499 S 1764.3299865722656 814.16698046875 1790.3799865722656 816.92998046875 C 1816.4319865722657 819.69298046875 1834.5889865722656 843.37598046875 1806.1689865722656 845.74498046875 C 1777.7489865722657 848.11328046875 1625.3889865722656 858.37598046875 1625.3889865722656 858.37598046875 L 1626.1799865722655 852.0599804687499 z" id="imagebot_30"/>
   <path label="Ebene 1" opacity="0.11" fill="url(#imagebot_28)" d="M1784.2,816.08C1752.702,818.9485 1722.003,827.262 1691.262,834.361C1669.243,839.8084 1647.27,845.45 1625.418,851.423C1624.2378,856.6367 1623.4489,861.3662 1630.3877,858.867C1690.2587,854.6013 1750.2077,851.1088 1810.0077,846.111C1815.5867,845.49038 1822.8657,841.5827 1821.1327,834.923C1817.2949,824.462 1805.7837,819.447 1795.6697,816.967C1791.9152,816.1225 1788.0396,815.7679 1784.1947,816.07885L1784.2,816.08z" id="imagebot_29"/>
   <path label="Ebene 1" opacity="0.11" fill="url(#imagebot_28)" d="M1784.1,815.23C1748.24,818.7115 1713.281,828.449 1678.28,836.748C1660.358,841.2709 1642.463,845.897 1624.632,850.762C1623.287,856.8796 1622.4513,862.461 1630.4641,859.7026C1690.3451,855.417 1750.3341,851.9778 1810.1341,846.9186C1816.4775,846.38896 1824.3281,841.2365 1821.6961,833.9806C1816.3281,821.9536 1802.1841,816.6706 1789.8521,815.2306C1787.9429,815.05221 1786.0136,815.11553 1784.1021,815.2306L1784.1,815.23z" id="imagebot_27"/>
  </g>
  <path label="Ebene 1" fill="url(#imagebot_25)" transform="matrix(0.324391 0 0 0.272817 -398.767 107.864)" d="M1353.8,333.66C1353.8,339.6875 1326.666,344.574 1293.194,344.574S1232.588,339.6878 1232.588,333.66C1232.588,327.6325 1259.722,322.746 1293.194,322.746S1353.8,327.6322 1353.8,333.66z" id="imagebot_24"/>
  <rect label="Ebene 1" fill="#ffff00" x="545.95" y="1774.4" width="24.194" height="74.353" ry="10.044" transform="rotate(-56.235 128.513 17.6818) matrix(0.5756 0 0 0.5756 -192.699 -1025.06)" id="imagebot_23"/>
  <rect label="Ebene 1" fill="url(#imagebot_55)" x="-1030.3" y="-2191.6" width="34.816" height="26.064" ry="3.561" transform="matrix(0.319918 -0.478508 -0.5756 -0.000760828 -916.871 -294.831)" id="imagebot_21"/>
  <rect label="Ebene 1" fill="url(#imagebot_20)" x="273.06" y="1766.5" width="284.47" height="91.155" transform="rotate(-56.235 83.0846 86.1503) matrix(0.5756 0 0 0.5756 -155.959 -956.881)" ry="10.044" id="imagebot_19"/>
  <path transform="matrix(0.5756 0 0 0.5756 -916.871 -294.831)" label="Ebene 1" fill="url(#imagebot_18)" d="M1629.4,760.53S1628.9643,778.949 1619.233,793.504S1607.755,828.383 1607.755,828.383C1607.4929,830.024 1608.124,832.1728 1609.3948,833.6895C1612.417,834.37668 1616.3366,836.1505 1620.2998,838.8003C1624.0956,841.3381 1627.1494,844.1728 1628.974,846.6295C1630.6917,847.04332 1632.6109,846.77997 1634.0452,845.96016C1634.0452,845.96016 1651.9932,836.82676 1661.8902,822.02316C1671.7872,807.22016 1688.4752,800.02616 1688.4752,800.02616C1688.5222,799.95636 1688.5452,799.87163 1688.5882,799.80099L1629.5642,760.33899C1629.5152,760.40629 1629.4458,760.46007 1629.3994,760.52948L1629.4,760.53z" id="imagebot_17"/>
  <g label="Ebene 1" transform="matrix(0.621015 0.0393751 -0.0806473 0.528378 -955.72 -340.658)" id="imagebot_11">
   <path opacity="0.2" fill="#ffffff" d="M1794.3,518.55C1791.7948,518.83287 1789.6804,521.2018 1788.4875,523.2062C1789.1061,524.4666 1790.175,521.4558 1790.9563,521.2062C1792.3564,518.9403 1795.0328,518.2189 1797.0813,520.05C1800.5522,521.8965 1803.9525,523.8954 1807.3623,525.8625C1803.2079,523.5343 1799.1632,520.1398 1794.8313,518.55C1794.2272,518.98734 1794.7763,518.19702 1794.3,518.55z" id="imagebot_16"/>
   <path opacity="0.2" fill="#ffffff" d="M1794.2,518.3C1791.8197,518.3266 1790.4096,520.6 1788.7626,522.0188C1787.8974,522.41702 1787.9808,524.0678 1788.95,523.925C1790.3997,522.2373 1791.7327,520.0743 1793.8563,519.2688C1796.2118,519.2868 1798.1783,521.2396 1800.3051,522.161C1807.1249,526.0244 1813.8681,529.9977 1820.5751,534.05C1812.1716,528.733 1803.9621,523.125 1795.3251,518.331C1794.9509,518.3002 1794.5753,518.21737 1794.2001,518.2998L1794.2,518.3z" id="imagebot_15"/>
   <path opacity="0.2" fill="#ffffff" d="M 1792.1799865722655 518.47818046875 S 1787.9359865722656 522.05208046875 1787.8614865722657 522.87118046875 C 1787.7874865722656 523.69021046875 1788.7549865722656 524.73258046875 1789.2016865722655 524.06248046875 C 1789.5239865722656 523.57908046875 1791.5970865722657 521.04568046875 1793.1010865722656 519.87508046875 C 1793.6820865722657 519.42293046875 1794.2414865722656 519.55418046875 1794.4881865722657 519.52054046875 C 1796.1261865722656 519.29717046875 1836.8291865722656 544.23954046875 1836.8291865722656 544.23954046875 S 1797.0201865722656 518.25454046875 1795.3821865722657 518.03154046875 C 1793.7440865722656 517.80817046875 1792.1804865722656 518.47828046875 1792.1804865722656 518.47828046875 L 1792.1799865722655 518.47818046875 z" id="imagebot_14"/>
   <path opacity="0.2" fill="#ffffff" d="M1794.2,517.73C1791.4938,517.7924 1789.8847,520.3549 1788.1062,522.0112C1786.9358,522.81966 1788.1652,525.1743 1789.3874,524.3237C1790.7761,522.758 1792.0514,520.6802 1793.9812,519.8237C1796.3117,519.99808 1798.2466,521.8499 1800.3572,522.7881C1812.6442,529.744 1824.6412,537.1841 1836.7312,544.4801C1838.2174,544.25777 1834.7224,542.6884 1834.0463,542.063C1821.4923,534.0283 1809.0843,525.708 1796.2933,518.105C1795.6643,517.72857 1794.9234,517.63353 1794.1996,517.73L1794.2,517.73z" id="imagebot_13"/>
   <path opacity="0.2" fill="#ffffff" d="M1794.4,517.45C1791.2518,517.5254 1788.8824,520.4092 1787.3062,522.7938C1787.0168,524.5099 1789.5063,525.7559 1790.1812,523.70005C1791.7042,522.01255 1793.6528,518.57335 1796.1419,520.82105C1809.8009,528.24925 1823.1639,536.64705 1836.5559,544.70005C1839.4988,544.26719 1832.5116,541.11815 1831.1548,539.86585C1819.2668,532.38555 1807.6778,524.28785 1795.4308,517.48085C1795.099,517.52325 1794.7452,517.33838 1794.3996,517.44965L1794.4,517.45z" id="imagebot_12"/>
  </g>
  <g label="Ebene 1" opacity="0.75899" transform="matrix(0.5756 0 0 0.5756 -916.871 -294.476)" id="imagebot_5">
   <path opacity="0.2" fill="#ffffff" d="M1781.2,527.98C1776.9231,528.68122 1775.7628,534.0602 1773.0734,536.9668C1725.0254,607.9568 1676.8654,678.8968 1628.8834,749.9168C1627.958,751.0595 1628.4449,754.7251 1630.3521,752.9793C1679.8711,679.6123 1729.0201,605.9393 1778.4721,532.5393C1780.3339,529.7634 1784.2182,529.3473 1786.7483,531.69722C1790.875,533.87372 1795.0017,536.05022 1799.1283,538.22682C1793.4182,534.90712 1787.9603,530.84572 1782.0973,527.97682C1781.798,527.93062 1781.4904,527.93062 1781.191,527.97682L1781.2,527.98z" id="imagebot_10"/>
   <path opacity="0.2" fill="#ffffff" d="M1781.2,527.7C1777.7643,528.03693 1776.4841,531.8739 1774.5509,534.3072C1725.9589,606.0532 1677.3369,677.7972 1628.7609,749.5472C1628.2503,750.8363 1627.6513,753.096 1629.2296,753.766C1631.2176,753.55024 1631.9354,750.9078 1633.1597,749.5166C1681.6507,677.2946 1730.1507,605.0166 1778.6397,532.8266C1780.0416,530.9204 1782.7661,529.4582 1784.9632,531.0552C1791.97,534.7498 1798.9772,538.4445 1805.9832,542.1392C1798.2733,537.353 1790.5762,532.5228 1782.8582,527.7642C1782.307,527.7301 1781.7543,527.60926 1781.202,527.7017L1781.2,527.7z" id="imagebot_9"/>
   <path opacity="0.2" fill="#ffffff" d="M 1782.8799865722656 527.47998046875 C 1781.9096865722656 527.34532046875 1781.0020865722656 527.32557046875 1780.1299865722656 527.60498046875 C 1779.2181865722657 527.89709046875 1778.2924865722657 528.49624046875 1777.2861865722657 529.76118046875 C 1777.2751865722657 529.77478046875 1777.2661865722657 529.77868046875 1777.2551865722655 529.79243046875 L 1628.5051865722655 749.38243046875 C 1627.7346865722657 751.12883046875 1627.6674865722657 753.02263046875 1628.5641865722657 753.70323046875 C 1628.8772865722656 754.32255046875 1630.1872865722655 754.23997046875 1631.3395865722657 752.65013046875 L 1778.9395865722656 533.01013046875 C 1778.9685865722656 532.97644046875 1778.9995865722656 532.94506046875 1779.0335865722657 532.91638046875 C 1779.6171865722656 532.30279046875 1780.2545865722657 531.60488046875 1781.0959865722657 531.13518046875 C 1781.9374865722657 530.66542046875 1783.0565865722656 530.45289046875 1784.1585865722657 530.88518046875 C 1784.1795865722656 530.89468046875 1784.2005865722656 530.90516046875 1784.2205865722656 530.91643046875 L 1812.7835865722657 545.97843046875 L 1783.0335865722657 527.47843046875 L 1782.8799865722656 527.47998046875 z" id="imagebot_8"/>
   <path opacity="0.2" fill="#ffffff" d="M1781.1,527.14C1777.3706,527.52856 1775.9975,531.5747 1773.9529,534.1936C1725.3909,605.8946 1676.7999,677.5936 1628.2529,749.2936C1627.4726,750.865 1627.1091,753.665 1629.0966,754.3248C1631.6332,754.17998 1632.3782,751.0413 1633.8644,749.3686C1682.2714,677.2866 1730.6254,605.1586 1779.0644,533.1086C1780.3762,531.2967 1782.9721,530.1048 1784.9124,531.6842C1794.1089,536.534 1803.3054,541.3838 1812.5024,546.2332C1814.0153,546.04803 1810.451,544.4854 1809.7477,543.8766C1800.8024,538.3242 1791.8487,532.7256 1782.9087,527.2016C1782.3055,527.16 1781.7008,527.0493 1781.0962,527.1391L1781.1,527.14z" id="imagebot_7"/>
   <path opacity="0.2" fill="#ffffff" d="M1781.1,526.86C1776.0746,527.71326 1774.6329,533.8207 1771.575,537.226C1723.738,607.878 1675.832,678.506 1628.035,749.176C1626.8056,750.9589 1627.174,755.3536 1630.1287,754.4572C1633.6946,751.7929 1635.39,746.8567 1638.2851,743.3672C1685.2941,673.3522 1732.3131,603.2772 1779.3151,533.2972C1780.9161,530.8022 1784.1366,530.6549 1786.3095,532.70608C1795.2132,537.23898 1803.9495,542.35348 1812.9575,546.52508C1814.0269,545.21478 1808.1371,542.94488 1806.4014,541.45008C1798.5867,536.61918 1790.8094,531.69688 1782.9714,526.92208C1782.3482,526.87808 1781.7214,526.76757 1781.0964,526.85958L1781.1,526.86z" id="imagebot_6"/>
  </g>
  <title>Ebene 1</title>
 </g>
 <metadata>image/svg+xmlOpenclipartTextmarker2011-08-05T17:45:34https://openclipart.org/detail/153817/textmarker-by-chrisdesignChrisdesigngreenofficepentextmarker</metadata>
</svg>